<?xml version="1.0" encoding="utf-8"?>
<!-- Svg Vector Icons : http://www.onlinewebfonts.com/icon -->
<!DOCTYPE svg PUBLIC "-//W3C//DTD SVG 1.1//EN" "http://www.w3.org/Graphics/SVG/1.1/DTD/svg11.dtd">
<svg version="1.1" xmlns="http://www.w3.org/2000/svg" xmlns:xlink="http://www.w3.org/1999/xlink" x="0px" y="0px" viewBox="0 0 1000 1000" enable-background="new 0 0 1000 1000" xml:space="preserve">
<metadata> Svg Vector Icons : http://www.onlinewebfonts.com/icon </metadata>
<g><path d="M282.3,500c0,30.1-61,54.4-136.1,54.4C71,554.4,10,530,10,500c0-30,61-54.4,136.2-54.4C221.4,445.6,282.3,469.9,282.3,500L282.3,500z M636.2,636.2c0,30.1-61,54.4-136.2,54.4c-75.2,0-136.1-24.4-136.1-54.4s60.9-54.5,136.1-54.5C575.2,581.7,636.2,606.1,636.2,636.2L636.2,636.2z M990,772.3c0,30.1-61,54.4-136.2,54.4c-75.1,0-136.1-24.4-136.1-54.4s61-54.4,136.1-54.4C929,717.8,990,742.2,990,772.3L990,772.3z M146.2,608.9c-75.2,0-136.2-24.4-136.2-54.4v81.7l0,0c0,30.1,61,54.4,136.2,54.4c75.1,0,136.1-24.4,136.1-54.4l0,0v-81.7C282.3,584.5,221.4,608.9,146.2,608.9L146.2,608.9z M146.2,745C71,745,10.1,720.6,10.1,690.6v81.7l0,0c0,30.1,61,54.3,136.2,54.3c75.1,0,136.1-24.3,136.1-54.3l0,0v-81.7C282.3,720.6,221.4,745,146.2,745L146.2,745z M146.2,881.1c-75.2,0-136.2-24.3-136.2-54.4v81.7l0,0c0,30.1,61,54.4,136.2,54.4c75.1,0,136.1-24.3,136.1-54.4l0,0v-81.7C282.3,856.8,221.4,881.1,146.2,881.1L146.2,881.1z M500,745c-75.2,0-136.1-24.4-136.1-54.4v81.7l0,0c0,30.1,60.9,54.3,136.1,54.3c75.2,0,136.2-24.3,136.2-54.3l0,0v-81.7C636.2,720.6,575.2,745,500,745L500,745z M500,881.1c-75.2,0-136.1-24.3-136.1-54.4v81.7l0,0c0,30.1,60.9,54.4,136.1,54.4c75.2,0,136.2-24.3,136.2-54.4l0,0v-81.7C636.2,856.8,575.2,881.1,500,881.1L500,881.1z M853.8,881.1c-75.1,0-136.1-24.3-136.1-54.4v81.7l0,0c0,30.1,61,54.4,136.1,54.4c75.2,0,136.2-24.3,136.2-54.4l0,0v-81.7C990,856.8,929,881.1,853.8,881.1L853.8,881.1z M772.2,309.5L500,37.3L227.8,309.5l81.7,81.6L445.6,255v272.2h108.9V255l136.1,136.1L772.2,309.5z"/></g>
</svg>